<svg viewBox="0 0 1200 800" xmlns="http://www.w3.org/2000/svg">
  <defs>
    <!-- Purple gradient for Earlyshh branding -->
    <linearGradient id="purpleGradient" x1="0%" y1="0%" x2="100%" y2="100%">
      <stop offset="0%" style="stop-color:#8B5CF6;stop-opacity:1" />
      <stop offset="100%" style="stop-color:#6366F1;stop-opacity:1" />
    </linearGradient>
    
    <!-- Glass morphism effect -->
    <filter id="glass">
      <feGaussianBlur in="SourceGraphic" stdDeviation="3"/>
      <feColorMatrix type="matrix" values="1 0 0 0 0  0 1 0 0 0  0 0 1 0 0  0 0 0 0.3 0"/>
    </filter>
  </defs>
  
  <!-- Background -->
  <rect width="1200" height="800" fill="url(#purpleGradient)" opacity="0.1"/>
  
  <!-- Title -->
  <text x="600" y="40" text-anchor="middle" font-family="Arial, sans-serif" font-size="28" font-weight="bold" fill="#1F2937">
    Earlyshh User Journey
  </text>
  
  <!-- Phase 1: Discovery -->
  <g transform="translate(50, 80)">
    <rect x="0" y="0" width="200" height="150" rx="15" fill="url(#purpleGradient)" opacity="0.2" stroke="#8B5CF6" stroke-width="2"/>
    <text x="100" y="25" text-anchor="middle" font-family="Arial, sans-serif" font-size="16" font-weight="bold" fill="#1F2937">Discovery</text>
    
    <!-- Phone mockup -->
    <rect x="20" y="40" width="60" height="90" rx="8" fill="white" stroke="#E5E7EB" stroke-width="1"/>
    <rect x="25" y="50" width="50" height="6" rx="3" fill="#E5E7EB"/>
    <rect x="25" y="60" width="50" height="25" rx="4" fill="#8B5CF6" opacity="0.3"/>
    <rect x="25" y="90" width="50" height="25" rx="4" fill="#8B5CF6" opacity="0.3"/>
    
    <!-- Features list -->
    <text x="100" y="55" text-anchor="middle" font-family="Arial, sans-serif" font-size="10" fill="#6B7280">• Campaign cards</text>
    <text x="100" y="70" text-anchor="middle" font-family="Arial, sans-serif" font-size="10" fill="#6B7280">• Search & filters</text>
    <text x="100" y="85" text-anchor="middle" font-family="Arial, sans-serif" font-size="10" fill="#6B7280">• Category browsing</text>
    <text x="100" y="100" text-anchor="middle" font-family="Arial, sans-serif" font-size="10" fill="#6B7280">• Location-based</text>
    
    <!-- Bottom nav -->
    <rect x="25" y="115" width="50" height="10" rx="2" fill="#1F2937"/>
    <circle cx="35" cy="120" r="2" fill="#8B5CF6"/>
    <circle cx="50" cy="120" r="2" fill="#6B7280"/>
    <circle cx="65" cy="120" r="2" fill="#6B7280"/>
  </g>
  
  <!-- Arrow 1 -->
  <path d="M 270 155 L 320 155" stroke="#8B5CF6" stroke-width="3" fill="none" marker-end="url(#arrowhead)"/>
  <defs>
    <marker id="arrowhead" markerWidth="10" markerHeight="7" refX="9" refY="3.5" orient="auto">
      <polygon points="0 0, 10 3.5, 0 7" fill="#8B5CF6"/>
    </marker>
  </defs>
  
  <!-- Phase 2: Engagement -->
  <g transform="translate(340, 80)">
    <rect x="0" y="0" width="200" height="150" rx="15" fill="url(#purpleGradient)" opacity="0.2" stroke="#8B5CF6" stroke-width="2"/>
    <text x="100" y="25" text-anchor="middle" font-family="Arial, sans-serif" font-size="16" font-weight="bold" fill="#1F2937">Engagement</text>
    
    <!-- Modal mockup -->
    <rect x="15" y="35" width="170" height="100" rx="10" fill="white" stroke="#E5E7EB" stroke-width="1" filter="url(#glass)"/>
    
    <!-- Brand logo placeholder -->
    <circle cx="100" cy="60" r="15" fill="#8B5CF6" opacity="0.3"/>
    <text x="100" y="65" text-anchor="middle" font-family="Arial, sans-serif" font-size="8" fill="#1F2937">LOGO</text>
    
    <!-- Modal content -->
    <text x="100" y="85" text-anchor="middle" font-family="Arial, sans-serif" font-size="10" fill="#1F2937">Partnership Terms</text>
    <rect x="25" y="90" width="150" height="2" fill="#E5E7EB"/>
    <text x="100" y="105" text-anchor="middle" font-family="Arial, sans-serif" font-size="9" fill="#6B7280">Brand details • Location • Instagram</text>
    
    <!-- Unlock button -->
    <rect x="40" y="115" width="120" height="15" rx="7" fill="#8B5CF6"/>
    <text x="100" y="125" text-anchor="middle" font-family="Arial, sans-serif" font-size="10" fill="white" font-weight="bold">Unlock Partnership</text>
  </g>
  
  <!-- Arrow 2 -->
  <path d="M 560 155 L 610 155" stroke="#8B5CF6" stroke-width="3" fill="none" marker-end="url(#arrowhead)"/>
  
  <!-- Phase 3: Redemption -->
  <g transform="translate(630, 80)">
    <rect x="0" y="0" width="200" height="150" rx="15" fill="url(#purpleGradient)" opacity="0.2" stroke="#8B5CF6" stroke-width="2"/>
    <text x="100" y="25" text-anchor="middle" font-family="Arial, sans-serif" font-size="16" font-weight="bold" fill="#1F2937">Redemption</text>
    
    <!-- QR Code mockup -->
    <rect x="20" y="40" width="60" height="90" rx="8" fill="white" stroke="#E5E7EB" stroke-width="1"/>
    
    <!-- QR code pattern -->
    <rect x="35" y="55" width="30" height="30" fill="white" stroke="#1F2937" stroke-width="1"/>
    <g fill="#1F2937">
      <rect x="37" y="57" width="2" height="2"/>
      <rect x="41" y="57" width="2" height="2"/>
      <rect x="45" y="57" width="2" height="2"/>
      <rect x="37" y="61" width="2" height="2"/>
      <rect x="45" y="61" width="2" height="2"/>
      <rect x="37" y="65" width="2" height="2"/>
      <rect x="41" y="65" width="2" height="2"/>
      <rect x="45" y="65" width="2" height="2"/>
      <rect x="49" y="57" width="2" height="2"/>
      <rect x="53" y="57" width="2" height="2"/>
      <rect x="57" y="57" width="2" height="2"/>
      <rect x="49" y="61" width="2" height="2"/>
      <rect x="57" y="61" width="2" height="2"/>
      <rect x="49" y="65" width="2" height="2"/>
      <rect x="53" y="65" width="2" height="2"/>
      <rect x="57" y="65" width="2" height="2"/>
    </g>
    
    <!-- Timer -->
    <text x="50" y="100" text-anchor="middle" font-family="Arial, sans-serif" font-size="8" fill="#DC2626">24:00</text>
    
    <!-- Features -->
    <text x="140" y="55" text-anchor="middle" font-family="Arial, sans-serif" font-size="10" fill="#6B7280">• QR Code scan</text>
    <text x="140" y="70" text-anchor="middle" font-family="Arial, sans-serif" font-size="10" fill="#6B7280">• Fetch code backup</text>
    <text x="140" y="85" text-anchor="middle" font-family="Arial, sans-serif" font-size="10" fill="#6B7280">• Countdown timer</text>
    <text x="140" y="100" text-anchor="middle" font-family="Arial, sans-serif" font-size="10" fill="#6B7280">• Share options</text>
    <text x="140" y="115" text-anchor="middle" font-family="Arial, sans-serif" font-size="10" fill="#6B7280">• Brand details</text>
  </g>
  
  <!-- Arrow 3 -->
  <path d="M 850 155 L 900 155" stroke="#8B5CF6" stroke-width="3" fill="none" marker-end="url(#arrowhead)"/>
  
  <!-- Phase 4: Physical Redemption -->
  <g transform="translate(920, 80)">
    <rect x="0" y="0" width="200" height="150" rx="15" fill="url(#purpleGradient)" opacity="0.2" stroke="#8B5CF6" stroke-width="2"/>
    <text x="100" y="25" text-anchor="middle" font-family="Arial, sans-serif" font-size="16" font-weight="bold" fill="#1F2937">Physical Use</text>
    
    <!-- Store icon -->
    <rect x="30" y="45" width="50" height="40" rx="5" fill="white" stroke="#E5E7EB" stroke-width="1"/>
    <rect x="35" y="55" width="8" height="20" fill="#8B5CF6" opacity="0.3"/>
    <rect x="47" y="55" width="8" height="20" fill="#8B5CF6" opacity="0.3"/>
    <rect x="59" y="55" width="8" height="20" fill="#8B5CF6" opacity="0.3"/>
    <rect x="35" y="50" width="40" height="3" fill="#1F2937"/>
    <text x="55" y="95" text-anchor="middle" font-family="Arial, sans-serif" font-size="8" fill="#1F2937">STORE</text>
    
    <!-- Process steps -->
    <text x="140" y="55" text-anchor="middle" font-family="Arial, sans-serif" font-size="10" fill="#6B7280">1. Visit location</text>
    <text x="140" y="70" text-anchor="middle" font-family="Arial, sans-serif" font-size="10" fill="#6B7280">2. Show QR code</text>
    <text x="140" y="85" text-anchor="middle" font-family="Arial, sans-serif" font-size="10" fill="#6B7280">3. Staff scans</text>
    <text x="140" y="100" text-anchor="middle" font-family="Arial, sans-serif" font-size="10" fill="#6B7280">4. Receive product</text>
    <text x="140" y="115" text-anchor="middle" font-family="Arial, sans-serif" font-size="10" fill="#6B7280">5. Share experience</text>
  </g>
  
  <!-- Navigation Flow -->
  <g transform="translate(50, 280)">
    <text x="0" y="0" font-family="Arial, sans-serif" font-size="20" font-weight="bold" fill="#1F2937">Navigation Structure</text>
    
    <!-- Bottom Navigation -->
    <rect x="0" y="20" width="300" height="50" rx="10" fill="white" stroke="#E5E7EB" stroke-width="2"/>
    <text x="150" y="35" text-anchor="middle" font-family="Arial, sans-serif" font-size="12" font-weight="bold" fill="#1F2937">Bottom Navigation</text>
    
    <!-- Nav items -->
    <g transform="translate(30, 40)">
      <circle cx="20" cy="15" r="8" fill="#8B5CF6"/>
      <text x="20" y="19" text-anchor="middle" font-family="Arial, sans-serif" font-size="6" fill="white">🏠</text>
      <text x="20" y="35" text-anchor="middle" font-family="Arial, sans-serif" font-size="8" fill="#1F2937">Home</text>
    </g>
    
    <g transform="translate(110, 40)">
      <circle cx="20" cy="15" r="8" fill="#6B7280"/>
      <text x="20" y="19" text-anchor="middle" font-family="Arial, sans-serif" font-size="6" fill="white">🔔</text>
      <text x="20" y="35" text-anchor="middle" font-family="Arial, sans-serif" font-size="8" fill="#1F2937">Notifications</text>
      <!-- Notification badge -->
      <circle cx="26" cy="9" r="3" fill="#DC2626"/>
      <text x="26" y="11" text-anchor="middle" font-family="Arial, sans-serif" font-size="5" fill="white">3</text>
    </g>
    
    <g transform="translate(190, 40)">
      <circle cx="20" cy="15" r="8" fill="#6B7280"/>
      <text x="20" y="19" text-anchor="middle" font-family="Arial, sans-serif" font-size="6" fill="white">👤</text>
      <text x="20" y="35" text-anchor="middle" font-family="Arial, sans-serif" font-size="8" fill="#1F2937">Profile</text>
    </g>
  </g>
  
  <!-- Key Features -->
  <g transform="translate(400, 280)">
    <text x="0" y="0" font-family="Arial, sans-serif" font-size="20" font-weight="bold" fill="#1F2937">Key Features</text>
    
    <g transform="translate(0, 30)">
      <circle cx="10" cy="0" r="4" fill="#10B981"/>
      <text x="25" y="4" font-family="Arial, sans-serif" font-size="12" fill="#1F2937">Streamlined flow: Campaign → QR (no My Coupons)</text>
    </g>
    
    <g transform="translate(0, 50)">
      <circle cx="10" cy="0" r="4" fill="#10B981"/>
      <text x="25" y="4" font-family="Arial, sans-serif" font-size="12" fill="#1F2937">Instagram integration with brand handles</text>
    </g>
    
    <g transform="translate(0, 70)">
      <circle cx="10" cy="0" r="4" fill="#10B981"/>
      <text x="25" y="4" font-family="Arial, sans-serif" font-size="12" fill="#1F2937">Purple gradient Earlyshh branding</text>
    </g>
    
    <g transform="translate(0, 90)">
      <circle cx="10" cy="0" r="4" fill="#10B981"/>
      <text x="25" y="4" font-family="Arial, sans-serif" font-size="12" fill="#1F2937">QR + fetch code for reliable redemption</text>
    </g>
    
    <g transform="translate(0, 110)">
      <circle cx="10" cy="0" r="4" fill="#10B981"/>
      <text x="25" y="4" font-family="Arial, sans-serif" font-size="12" fill="#1F2937">Real-time notifications with badge counts</text>
    </g>
  </g>
  
  <!-- User Actions -->
  <g transform="translate(50, 450)">
    <text x="0" y="0" font-family="Arial, sans-serif" font-size="20" font-weight="bold" fill="#1F2937">User Actions &amp; Touch Points</text>
    
    <!-- Action flow -->
    <g transform="translate(0, 30)">
      <rect x="0" y="0" width="120" height="40" rx="8" fill="#F3F4F6" stroke="#D1D5DB"/>
      <text x="60" y="25" text-anchor="middle" font-family="Arial, sans-serif" font-size="11" fill="#1F2937">Tap Campaign Card</text>
    </g>
    
    <path d="M 130 50 L 160 50" stroke="#8B5CF6" stroke-width="2" fill="none" marker-end="url(#arrowhead)"/>
    
    <g transform="translate(170, 30)">
      <rect x="0" y="0" width="120" height="40" rx="8" fill="#F3F4F6" stroke="#D1D5DB"/>
      <text x="60" y="20" text-anchor="middle" font-family="Arial, sans-serif" font-size="11" fill="#1F2937">Partnership Modal</text>
      <text x="60" y="32" text-anchor="middle" font-family="Arial, sans-serif" font-size="9" fill="#6B7280">View terms &amp; details</text>
    </g>
    
    <path d="M 300 50 L 330 50" stroke="#8B5CF6" stroke-width="2" fill="none" marker-end="url(#arrowhead)"/>
    
    <g transform="translate(340, 30)">
      <rect x="0" y="0" width="120" height="40" rx="8" fill="#8B5CF6"/>
      <text x="60" y="20" text-anchor="middle" font-family="Arial, sans-serif" font-size="11" fill="white" font-weight="bold">Unlock Partnership</text>
      <text x="60" y="32" text-anchor="middle" font-family="Arial, sans-serif" font-size="9" fill="white">Claim offer</text>
    </g>
    
    <path d="M 470 50 L 500 50" stroke="#8B5CF6" stroke-width="2" fill="none" marker-end="url(#arrowhead)"/>
    
    <g transform="translate(510, 30)">
      <rect x="0" y="0" width="120" height="40" rx="8" fill="#F3F4F6" stroke="#D1D5DB"/>
      <text x="60" y="20" text-anchor="middle" font-family="Arial, sans-serif" font-size="11" fill="#1F2937">QR Code Page</text>
      <text x="60" y="32" text-anchor="middle" font-family="Arial, sans-serif" font-size="9" fill="#6B7280">Ready for redemption</text>
    </g>
  </g>
  
  <!-- Design Elements -->
  <g transform="translate(700, 350)">
    <text x="0" y="0" font-family="Arial, sans-serif" font-size="16" font-weight="bold" fill="#1F2937">Design Elements</text>
    
    <!-- Purple gradient sample -->
    <rect x="0" y="20" width="80" height="30" rx="5" fill="url(#purpleGradient)"/>
    <text x="90" y="35" font-family="Arial, sans-serif" font-size="11" fill="#1F2937">Purple gradient branding</text>
    
    <!-- Glass morphism sample -->
    <rect x="0" y="60" width="80" height="30" rx="5" fill="white" opacity="0.2" stroke="#8B5CF6" filter="url(#glass)"/>
    <text x="90" y="75" font-family="Arial, sans-serif" font-size="11" fill="#1F2937">Glass morphism effects</text>
    
    <!-- High contrast sample -->
    <rect x="0" y="100" width="80" height="30" rx="5" fill="white" stroke="#1F2937" stroke-width="2"/>
    <text x="90" y="115" font-family="Arial, sans-serif" font-size="11" fill="#1F2937">High contrast cards</text>
  </g>
  
  <!-- Success Metrics -->
  <g transform="translate(50, 550)">
    <text x="0" y="0" font-family="Arial, sans-serif" font-size="18" font-weight="bold" fill="#1F2937">Success Metrics</text>
    
    <g transform="translate(0, 25)">
      <rect x="0" y="0" width="250" height="80" rx="10" fill="#F0FDF4" stroke="#10B981" stroke-width="1"/>
      <text x="15" y="20" font-family="Arial, sans-serif" font-size="12" font-weight="bold" fill="#10B981">Conversion Funnel</text>
      <text x="15" y="35" font-family="Arial, sans-serif" font-size="10" fill="#374151">Campaign views → Modal opens</text>
      <text x="15" y="50" font-family="Arial, sans-serif" font-size="10" fill="#374151">Modal views → Partnerships claimed</text>
      <text x="15" y="65" font-family="Arial, sans-serif" font-size="10" fill="#374151">QR codes → Physical redemptions</text>
    </g>
    
    <g transform="translate(270, 25)">
      <rect x="0" y="0" width="250" height="80" rx="10" fill="#FEF3C7" stroke="#F59E0B" stroke-width="1"/>
      <text x="15" y="20" font-family="Arial, sans-serif" font-size="12" font-weight="bold" fill="#F59E0B">Engagement Metrics</text>
      <text x="15" y="35" font-family="Arial, sans-serif" font-size="10" fill="#374151">Time spent in partnership modal</text>
      <text x="15" y="50" font-family="Arial, sans-serif" font-size="10" fill="#374151">Social shares and Instagram stories</text>
      <text x="15" y="65" font-family="Arial, sans-serif" font-size="10" fill="#374151">Return user rate and loyalty</text>
    </g>
    
    <g transform="translate(540, 25)">
      <rect x="0" y="0" width="250" height="80" rx="10" fill="#EDE9FE" stroke="#8B5CF6" stroke-width="1"/>
      <text x="15" y="20" font-family="Arial, sans-serif" font-size="12" font-weight="bold" fill="#8B5CF6">Business Value</text>
      <text x="15" y="35" font-family="Arial, sans-serif" font-size="10" fill="#374151">Brand partnership completion rate</text>
      <text x="15" y="50" font-family="Arial, sans-serif" font-size="10" fill="#374151">Geographic distribution analysis</text>
      <text x="15" y="65" font-family="Arial, sans-serif" font-size="10" fill="#374151">Category popularity trends</text>
    </g>
  </g>
  
  <!-- Footer -->
  <text x="600" y="750" text-anchor="middle" font-family="Arial, sans-serif" font-size="12" fill="#6B7280">
    Earlyshh User Journey - Streamlined Partnership Discovery &amp; Redemption Platform
  </text>
</svg>